# xmcd
#
# Track frame offsets: 
#        150
#        15728
#        31675
#        52358
#        71283
#        86053
#        100683
#        109808
#        114128
#        130658
#        141455
#        157045
#
# Disc length: 2256 seconds
#
# Revision: 0
# Processed by: cddbd v1.4PL0 Copyright (c) Steve Scherf et al.
# Submitted via: ExactAudioCopy v0.90a11
#
DISCID=9c08ce0c
DTITLE=Rick Coleman - Circles
DYEAR=1900
DGENRE=
TTITLE0=Road to Tears
TTITLE1=Just to See Your Smile
TTITLE2=I'll Love You Always
TTITLE3=Sunday Afternoon in Berlin
TTITLE4=When I Dream of You
TTITLE5=When the Sky Falls
TTITLE6=September in Sweden
TTITLE7=Circles
TTITLE8=U Gone Too Far
TTITLE9=Drivin' Me Out
TTITLE10=The Truth
TTITLE11=I Think of You
EXTD=
EXTT0=
EXTT1=
EXTT2=
EXTT3=
EXTT4=
EXTT5=
EXTT6=
EXTT7=
EXTT8=
EXTT9=
EXTT10=
EXTT11=
PLAYORDER=
